<?xml version="1.0" standalone="no"?>
<!DOCTYPE svg PUBLIC "-//W3C//DTD SVG 20010904//EN"
 "http://www.w3.org/TR/2001/REC-SVG-20010904/DTD/svg10.dtd">
<svg version="1.0" xmlns="http://www.w3.org/2000/svg"
 width="512.000000pt" height="512.000000pt" viewBox="0 0 512.000000 512.000000"
 preserveAspectRatio="xMidYMid meet">
<metadata>
Created by potrace 1.14, written by Peter Selinger 2001-2017
</metadata>
<g transform="translate(0.000000,512.000000) scale(0.100000,-0.100000)"
fill="#000000" stroke="none">
<path d="M2320 5113 c-234 -37 -483 -134 -675 -263 -142 -96 -294 -237 -380
-355 -17 -22 -33 -42 -36 -45 -19 -16 -115 -180 -154 -262 -77 -162 -133 -365
-151 -543 -10 -106 -5 -308 10 -390 2 -11 7 -40 11 -65 11 -69 12 -74 31 -142
9 -35 21 -67 25 -72 5 -6 9 -18 9 -28 0 -37 103 -248 178 -363 119 -183 303
-363 497 -487 128 -82 134 -98 135 -346 0 -182 0 -183 -25 -210 -45 -48 -58
-100 -53 -209 3 -66 10 -110 22 -134 18 -35 18 -37 -3 -76 -17 -35 -20 -56
-18 -149 4 -122 16 -157 70 -198 l32 -25 -2 -110 c-3 -119 6 -157 46 -209 43
-54 95 -73 200 -73 l90 0 6 -37 c29 -172 173 -305 345 -318 133 -10 265 52
339 159 33 48 71 151 66 178 -3 16 6 18 76 18 111 0 142 8 189 48 62 54 73 83
76 198 1 55 -2 109 -6 121 -7 17 -2 24 21 38 16 9 41 38 56 64 26 44 28 55 28
157 0 93 -3 115 -21 145 -21 35 -21 36 -1 73 24 47 32 179 16 251 -6 26 -25
63 -41 82 l-29 33 0 191 c0 256 -9 239 217 397 146 102 300 260 404 413 117
173 234 464 256 640 2 19 7 42 9 51 3 9 6 40 6 69 2 49 -1 57 -30 81 -31 25
-32 28 -35 122 -2 87 -1 97 16 103 21 6 50 57 44 76 -3 7 -7 32 -10 55 -27
213 -155 507 -310 712 -79 105 -215 244 -290 296 -15 11 -34 25 -41 32 -52 49
-277 172 -399 218 -70 26 -200 64 -251 72 -16 3 -48 8 -70 12 -22 4 -58 7 -80
7 -33 -1 -43 -6 -60 -32 l-20 -31 -99 1 c-93 1 -99 3 -107 24 -13 35 -56 47
-129 35z"/>
<path d="M448 4154 c-15 -8 -31 -26 -34 -39 -8 -31 12 -81 34 -90 100 -41 277
-105 289 -105 8 0 27 13 43 29 32 32 33 72 2 102 -17 17 -272 119 -295 119 -6
-1 -24 -7 -39 -16z"/>
<path d="M4485 4118 c-71 -27 -138 -57 -147 -66 -26 -26 -29 -68 -7 -95 33
-43 58 -41 198 12 71 27 138 55 150 62 44 28 35 105 -16 128 -33 15 -33 15
-178 -41z"/>
<path d="M356 3600 c-64 -11 -83 -84 -34 -130 20 -18 35 -20 179 -20 l157 0
27 31 c14 18 24 38 21 46 -4 8 -6 21 -6 29 0 7 -12 21 -26 31 -22 14 -51 17
-158 18 -72 0 -144 -2 -160 -5z"/>
<path d="M4463 3599 c-51 -19 -63 -75 -27 -118 l26 -31 148 0 c90 0 159 5 174
11 32 15 50 57 37 90 -18 49 -32 53 -191 54 -82 0 -157 -2 -167 -6z"/>
<path d="M575 3080 c-132 -51 -165 -74 -165 -115 0 -36 37 -75 71 -75 24 0
131 36 273 92 17 7 34 25 42 45 12 29 12 37 0 62 -29 55 -55 54 -221 -9z"/>
<path d="M4342 3113 c-41 -35 -29 -104 21 -127 80 -37 250 -96 276 -96 34 0
71 39 71 75 0 41 -33 64 -165 115 -141 54 -172 59 -203 33z"/>
</g>
</svg>
